<?xml version="1.0" encoding="utf-8"?>
<!-- Generator: Adobe Illustrator 28.3.0, SVG Export Plug-In . SVG Version: 6.00 Build 0)  -->
<svg version="1.1" id="Layer_1" xmlns="http://www.w3.org/2000/svg" xmlns:xlink="http://www.w3.org/1999/xlink" x="0px"
     y="0px"
     viewBox="0 0 300 40.8" style="enable-background:new 0 0 520 40.8;" xml:space="preserve">
<style type="text/css">
	.st0{fill:#C8C8C1;}
</style>
    <g>
	<path class="st0" d="M11,31.5V18h20.2c0.6,0,1.1-0.2,1.6-0.6c0.4-0.4,0.7-1,0.7-1.6v-2.2H11V9h27v9c0,1.3-0.4,2.3-1.3,3.2
		c-0.9,0.9-1.9,1.3-3.2,1.3h-18v9H11z"/>
        <path class="st0" d="M56,22.5V9h4.5v13.5H56z M60.5,31.5c-1.3,0-2.3-0.4-3.2-1.3c-0.9-0.9-1.3-2-1.3-3.2h27c0,1.3-0.4,2.3-1.3,3.2
		c-0.9,0.9-1.9,1.3-3.2,1.3H60.5z M78.5,22.5V9H83v13.5H78.5z"/>
        <path class="st0" d="M101,31.5V18h20.2c0.6,0,1.1-0.2,1.6-0.6c0.4-0.4,0.7-1,0.7-1.6v-2.2h-18c-1.3,0-2.3-0.4-3.2-1.3
		c-0.9-0.9-1.3-2-1.3-3.2h27v9c0,1.3-0.4,2.3-1.3,3.2c-0.9,0.9-1.9,1.3-3.2,1.3H119l9,9h-6.8l-9-9h-6.8v9H101z"/>
        <path class="st0" d="M146,31.5c0-1.2,0.4-2.3,1.3-3.2c0.9-0.9,2-1.3,3.2-1.3h18v-4.5H146V9h27c0,1.3-0.4,2.3-1.3,3.2
		c-0.9,0.9-1.9,1.3-3.2,1.3h-18V18H173v13.5H146z"/>
        <path class="st0" d="M191,22.5V9h4.5v13.5H191z M195.5,31.5c-1.3,0-2.3-0.4-3.2-1.3c-0.9-0.9-1.3-2-1.3-3.2h27
		c0,1.3-0.4,2.3-1.3,3.2c-0.9,0.9-1.9,1.3-3.2,1.3H195.5z M213.5,22.5V9h4.5v13.5H213.5z"/>
        <path class="st0" d="M240.5,13.5c-1.3,0-2.3-0.4-3.2-1.3c-0.9-0.9-1.3-2-1.3-3.2h27c0,1.3-0.4,2.3-1.3,3.2
		c-0.9,0.9-1.9,1.3-3.2,1.3H240.5z M240.5,22.5c-1.3,0-2.3-0.4-3.2-1.3c-0.9-0.9-1.3-2-1.3-3.2h27c0,1.3-0.4,2.3-1.3,3.2
		c-0.9,0.9-1.9,1.3-3.2,1.3H240.5z M240.5,31.5c-1.3,0-2.3-0.4-3.2-1.3c-0.9-0.9-1.3-2-1.3-3.2h27c0,1.3-0.4,2.3-1.3,3.2
		s-1.9,1.3-3.2,1.3H240.5z"/>
</g>
</svg>